ply
format ascii 1.0
element vertex 130
property float x
property float y
property float z
element face 256
property list uchar int vertex_indices
end_header
-0.489868 -0.489868 -0.489868
0.489868 0.489868 -0.489868
0.489868 -0.489868 0.489868
-0.489868 0.489868 0.489868
0 0 -0.610352
0 0.610352 0
-0.610352 0 0
0 -0.610352 0
0.610352 0 0
0 0 0.610352
-0.568238 -0.316529 -0.316529
-0.359131 -0.359131 0.00927734
-0.316529 -0.568238 -0.316529
-0.316529 -0.316529 -0.568238
-0.359131 0.00927734 -0.359131
0.00927734 -0.359131 -0.359131
0.316529 0.316529 -0.568238
0.359131 -0.00927734 -0.359131
0.568238 0.316529 -0.316529
0.316529 0.568238 -0.316529
-0.00927734 0.359131 -0.359131
0.359131 0.359131 0.00927734
0.316529 -0.568238 0.316529
-0.00927734 -0.359131 0.359131
0.316529 -0.316529 0.568238
0.568238 -0.316529 0.316529
0.359131 -0.359131 -0.00927734
0.359131 0.00927734 0.359131
-0.316529 0.316529 0.568238
-0.359131 -0.00927734 0.359131
-0.568238 0.316529 0.316529
-0.316529 0.568238 0.316529
0.00927734 0.359131 0.359131
-0.359131 0.359131 -0.00927734
-0.425049 -0.530518 -0.425049
-0.312256 -0.458741 -0.458741
-0.425049 -0.425049 -0.530518
-0.530518 -0.425049 -0.425049
-0.458741 -0.458741 -0.312256
-0.458741 -0.312256 -0.458741
0.530518 0.425049 -0.425049
0.458741 0.458741 -0.312256
0.425049 0.530518 -0.425049
0.425049 0.425049 -0.530518
0.458741 0.312256 -0.458741
0.312256 0.458741 -0.458741
0.425049 -0.425049 0.530518
0.458741 -0.312256 0.458741
0.530518 -0.425049 0.425049
0.425049 -0.530518 0.425049
0.312256 -0.458741 0.458741
0.458741 -0.458741 0.312256
-0.530518 0.425049 0.425049
-0.458741 0.458741 0.312256
-0.425049 0.530518 0.425049
-0.425049 0.425049 0.530518
-0.458741 0.312256 0.458741
-0.312256 0.458741 0.458741
0.162598 0.162598 -0.592774
0.156739 0.338379 -0.484375
-0.00634766 0.181153 -0.504883
0.181153 -0.00634766 -0.504883
0.338379 0.156739 -0.484375
0.00634766 -0.181153 -0.504883
0.187012 -0.187012 -0.362305
-0.162598 -0.162598 -0.592774
-0.156739 -0.338379 -0.484375
-0.181153 0.00634766 -0.504883
-0.338379 -0.156739 -0.484375
-0.187012 0.187012 -0.362305
-0.162598 0.592774 0.162598
-0.338379 0.484375 0.156739
-0.181153 0.504883 -0.00634766
0.00634766 0.504883 0.181153
-0.156739 0.484375 0.338379
0.181153 0.504883 0.00634766
0.187012 0.362305 0.187012
0.162598 0.592774 -0.162598
0.338379 0.484375 -0.156739
-0.00634766 0.504883 -0.181153
0.156739 0.484375 -0.338379
-0.187012 0.362305 -0.187012
-0.504883 0.181153 -0.00634766
-0.484375 0.338379 0.156739
-0.592774 0.162598 0.162598
-0.504883 0.00634766 -0.181153
-0.362305 0.187012 -0.187012
-0.592774 -0.162598 -0.162598
-0.484375 -0.156739 -0.338379
-0.504883 -0.181153 0.00634766
-0.484375 -0.338379 -0.156739
-0.504883 -0.00634766 0.181153
-0.362305 -0.187012 0.187012
-0.484375 0.156739 0.338379
0.162598 -0.592774 0.162598
0.338379 -0.484375 0.156739
0.181153 -0.504883 -0.00634766
-0.00634766 -0.504883 0.181153
0.156739 -0.484375 0.338379
-0.181153 -0.504883 0.00634766
-0.187012 -0.362305 0.187012
-0.162598 -0.592774 -0.162598
-0.338379 -0.484375 -0.156739
0.00634766 -0.504883 -0.181153
-0.156739 -0.484375 -0.338379
0.187012 -0.362305 -0.187012
0.592774 -0.162598 0.162598
0.484375 -0.156739 0.338379
0.504883 0.00634766 0.181153
0.504883 -0.181153 -0.00634766
0.484375 -0.338379 0.156739
0.504883 -0.00634766 -0.181153
0.362305 -0.187012 -0.187012
0.592774 0.162598 -0.162598
0.484375 0.156739 -0.338379
0.504883 0.181153 0.00634766
0.484375 0.338379 -0.156739
0.362305 0.187012 0.187012
-0.162598 0.162598 0.592774
-0.156739 0.338379 0.484375
0.00634766 0.181153 0.504883
-0.181153 -0.00634766 0.504883
-0.338379 0.156739 0.484375
-0.00634766 -0.181153 0.504883
-0.187012 -0.187012 0.362305
0.162598 -0.162598 0.592774
0.156739 -0.338379 0.484375
0.181153 0.00634766 0.504883
0.338379 -0.156739 0.484375
0.187012 0.187012 0.362305
3 83 71 53
3 31 53 71
3 33 71 83
3 30 83 53
3 122 93 56
3 30 56 93
3 29 93 122
3 28 122 56
3 74 119 57
3 28 57 119
3 32 119 74
3 31 74 57
3 128 107 47
3 25 47 107
3 27 107 128
3 24 128 47
3 98 126 50
3 24 50 126
3 23 126 98
3 22 98 50
3 110 95 51
3 22 51 95
3 26 95 110
3 25 110 51
3 129 76 117
3 21 117 76
3 32 76 129
3 27 129 117
3 116 78 41
3 19 41 78
3 21 78 116
3 18 116 41
3 62 114 44
3 18 44 114
3 17 114 62
3 16 62 44
3 80 59 45
3 16 45 59
3 20 59 80
3 19 80 45
3 105 112 64
3 17 64 112
3 26 112 105
3 15 105 64
3 81 86 69
3 14 69 86
3 33 86 81
3 20 81 69
3 104 66 35
3 13 35 66
3 15 66 104
3 12 104 35
3 100 92 124
3 29 124 92
3 11 92 100
3 23 100 124
3 90 102 38
3 12 38 102
3 11 102 90
3 10 90 38
3 68 88 39
3 10 39 88
3 14 88 68
3 13 68 39
3 0 34 36
3 12 35 34
3 13 36 35
3 34 35 36
3 0 37 34
3 10 38 37
3 12 34 38
3 37 38 34
3 0 36 37
3 13 39 36
3 10 37 39
3 36 39 37
3 1 40 42
3 18 41 40
3 19 42 41
3 40 41 42
3 1 43 40
3 16 44 43
3 18 40 44
3 43 44 40
3 1 42 43
3 19 45 42
3 16 43 45
3 42 45 43
3 2 46 48
3 24 47 46
3 25 48 47
3 46 47 48
3 2 49 46
3 22 50 49
3 24 46 50
3 49 50 46
3 2 48 49
3 25 51 48
3 22 49 51
3 48 51 49
3 3 52 54
3 30 53 52
3 31 54 53
3 52 53 54
3 3 55 52
3 28 56 55
3 30 52 56
3 55 56 52
3 3 54 55
3 31 57 54
3 28 55 57
3 54 57 55
3 4 58 60
3 16 59 58
3 20 60 59
3 58 59 60
3 4 61 58
3 17 62 61
3 16 58 62
3 61 62 58
3 4 63 61
3 15 64 63
3 17 61 64
3 63 64 61
3 4 65 63
3 13 66 65
3 15 63 66
3 65 66 63
3 4 67 65
3 14 68 67
3 13 65 68
3 67 68 65
3 4 60 67
3 20 69 60
3 14 67 69
3 60 69 67
3 5 70 72
3 31 71 70
3 33 72 71
3 70 71 72
3 5 73 70
3 32 74 73
3 31 70 74
3 73 74 70
3 5 75 73
3 21 76 75
3 32 73 76
3 75 76 73
3 5 77 75
3 19 78 77
3 21 75 78
3 77 78 75
3 5 79 77
3 20 80 79
3 19 77 80
3 79 80 77
3 5 72 79
3 33 81 72
3 20 79 81
3 72 81 79
3 6 82 84
3 33 83 82
3 30 84 83
3 82 83 84
3 6 85 82
3 14 86 85
3 33 82 86
3 85 86 82
3 6 87 85
3 10 88 87
3 14 85 88
3 87 88 85
3 6 89 87
3 11 90 89
3 10 87 90
3 89 90 87
3 6 91 89
3 29 92 91
3 11 89 92
3 91 92 89
3 6 84 91
3 30 93 84
3 29 91 93
3 84 93 91
3 7 94 96
3 22 95 94
3 26 96 95
3 94 95 96
3 7 97 94
3 23 98 97
3 22 94 98
3 97 98 94
3 7 99 97
3 11 100 99
3 23 97 100
3 99 100 97
3 7 101 99
3 12 102 101
3 11 99 102
3 101 102 99
3 7 103 101
3 15 104 103
3 12 101 104
3 103 104 101
3 7 96 103
3 26 105 96
3 15 103 105
3 96 105 103
3 8 106 108
3 25 107 106
3 27 108 107
3 106 107 108
3 8 109 106
3 26 110 109
3 25 106 110
3 109 110 106
3 8 111 109
3 17 112 111
3 26 109 112
3 111 112 109
3 8 113 111
3 18 114 113
3 17 111 114
3 113 114 111
3 8 115 113
3 21 116 115
3 18 113 116
3 115 116 113
3 8 108 115
3 27 117 108
3 21 115 117
3 108 117 115
3 9 118 120
3 28 119 118
3 32 120 119
3 118 119 120
3 9 121 118
3 29 122 121
3 28 118 122
3 121 122 118
3 9 123 121
3 23 124 123
3 29 121 124
3 123 124 121
3 9 125 123
3 24 126 125
3 23 123 126
3 125 126 123
3 9 127 125
3 27 128 127
3 24 125 128
3 127 128 125
3 9 120 127
3 32 129 120
3 27 127 129
3 120 129 127
