ply
format ascii 1.0
element vertex 130
property float x
property float y
property float z
element face 256
property list uchar int vertex_indices
end_header
-0.200195 -0.200195 -0.200195
0.200195 0.200195 -0.200195
0.200195 -0.200195 0.200195
-0.200195 0.200195 0.200195
0.304688 0 0
0 0 0.304688
0 0.304688 0
0 0 -0.304688
0 -0.304688 0
-0.304688 0 0
0.0273438 0.201172 0.201172
0.201172 0.201172 0.0273438
0.201172 0.0273438 0.201172
0.0273438 -0.201172 -0.201172
0.201172 -0.201172 -0.0273438
0.201172 -0.0273438 -0.201172
-0.201172 -0.201172 0.0273438
-0.201172 -0.0273438 0.201172
-0.0273438 -0.201172 0.201172
-0.201172 0.201172 -0.0273438
-0.201172 0.0273438 -0.201172
-0.0273438 0.201172 -0.201172
-0.149414 0.149414 0.256836
-0.149414 0.256836 0.149414
0.149414 0.256836 -0.149414
0.256836 0.149414 -0.149414
0.256836 -0.149414 0.149414
0.149414 -0.149414 0.256836
-0.149414 -0.149414 -0.256836
-0.149414 -0.256836 -0.149414
0.149414 -0.256836 0.149414
0.149414 0.149414 -0.256836
-0.256836 -0.149414 -0.149414
-0.256836 0.149414 0.149414
0.210938 0.121094 0.121094
0.121094 0.121094 0.210938
0.121094 0.210938 0.121094
0.210938 -0.121094 -0.121094
0.121094 -0.121094 -0.210938
0.121094 -0.210938 -0.121094
-0.121094 -0.121094 0.210938
-0.121094 -0.210938 0.121094
-0.210938 -0.121094 0.121094
-0.121094 0.121094 -0.210938
-0.121094 0.210938 -0.121094
-0.210938 0.121094 -0.121094
-0.138672 0.216797 0.216797
-0.0664063 0.25 0.175781
-0.0664063 0.175781 0.25
0.216797 0.216797 -0.138672
0.25 0.175781 -0.0664063
0.175781 0.25 -0.0664063
0.216797 -0.138672 0.216797
0.175781 -0.0664063 0.25
0.25 -0.0664063 0.175781
-0.138672 -0.216797 -0.216797
-0.0664063 -0.25 -0.175781
-0.0664063 -0.175781 -0.25
0.175781 -0.25 0.0664063
0.216797 -0.216797 0.138672
0.25 -0.175781 0.0664063
0.216797 0.138672 -0.216797
0.175781 0.0664063 -0.25
0.25 0.0664063 -0.175781
-0.216797 -0.216797 -0.138672
-0.25 -0.175781 -0.0664063
-0.175781 -0.25 -0.0664063
-0.25 0.0664063 0.175781
-0.216797 0.138672 0.216797
-0.175781 0.0664063 0.25
0.138672 -0.216797 0.216797
0.0664063 -0.25 0.175781
0.0664063 -0.175781 0.25
-0.216797 0.216797 0.138672
-0.25 0.175781 0.0664063
-0.175781 0.25 0.0664063
-0.25 -0.0664063 -0.175781
-0.216797 -0.138672 -0.216797
-0.175781 -0.0664063 -0.25
0.0664063 0.175781 -0.25
0.138672 0.216797 -0.216797
0.0664063 0.25 -0.175781
0.273438 0.105469 0.0195313
0.273438 0.0195313 0.105469
0.105469 0.0195313 0.273438
0.0195313 0.105469 0.273438
0.0195313 0.273438 0.105469
0.105469 0.273438 0.0195313
0.273438 -0.105469 -0.0195313
0.273438 -0.0195313 -0.105469
0.105469 -0.0195313 -0.273438
0.0195313 -0.105469 -0.273438
0.0195313 -0.273438 -0.105469
0.105469 -0.273438 -0.0195313
-0.105469 -0.0195313 0.273438
-0.0195313 -0.105469 0.273438
-0.0195313 -0.273438 0.105469
-0.105469 -0.273438 0.0195313
-0.273438 -0.105469 0.0195313
-0.273438 -0.0195313 0.105469
-0.105469 0.0195313 -0.273438
-0.0195313 0.105469 -0.273438
-0.0195313 0.273438 -0.105469
-0.105469 0.273438 -0.0195313
-0.273438 0.105469 -0.0195313
-0.273438 0.0195313 -0.105469
-0.189453 0.189453 0.220703
-0.189453 0.220703 0.189453
-0.0820313 0.289063 0.0820313
-0.0820313 0.0820313 0.289063
0.189453 0.220703 -0.189453
0.220703 0.189453 -0.189453
0.289063 0.0820313 -0.0820313
0.0820313 0.289063 -0.0820313
0.220703 -0.189453 0.189453
0.189453 -0.189453 0.220703
0.0820313 -0.0820313 0.289063
0.289063 -0.0820313 0.0820313
-0.189453 -0.189453 -0.220703
-0.189453 -0.220703 -0.189453
-0.0820313 -0.289063 -0.0820313
-0.0820313 -0.0820313 -0.289063
0.0820313 -0.289063 0.0820313
0.189453 -0.220703 0.189453
0.189453 0.189453 -0.220703
0.0820313 0.0820313 -0.289063
-0.220703 -0.189453 -0.189453
-0.289063 -0.0820313 -0.0820313
-0.289063 0.0820313 0.0820313
-0.220703 0.189453 0.189453
3 35 36 34
3 38 39 37
3 41 42 40
3 44 45 43
3 47 48 46
3 50 51 49
3 53 54 52
3 56 57 55
3 59 60 58
3 62 63 61
3 65 66 64
3 68 69 67
3 71 72 70
3 74 75 73
3 77 78 76
3 80 81 79
3 82 83 34
3 84 85 35
3 86 87 36
3 88 89 37
3 90 91 38
3 92 93 39
3 94 95 40
3 96 97 41
3 98 99 42
3 100 101 43
3 102 103 44
3 104 105 45
3 106 107 46
3 47 108 86
3 85 109 48
3 110 111 49
3 50 112 82
3 87 113 51
3 114 115 52
3 53 116 84
3 83 117 54
3 118 119 55
3 56 120 92
3 91 121 57
3 93 122 58
3 59 123 114
3 60 117 88
3 111 124 61
3 62 125 90
3 89 112 63
3 119 126 64
3 65 127 98
3 97 120 66
3 99 128 67
3 68 129 106
3 69 109 94
3 115 123 70
3 71 122 96
3 95 116 72
3 107 129 73
3 74 128 104
3 103 108 75
3 105 127 76
3 77 126 118
3 78 121 100
3 101 125 79
3 80 124 110
3 81 113 102
3 36 35 10
3 34 36 11
3 35 34 12
3 39 38 13
3 37 39 14
3 38 37 15
3 42 41 16
3 40 42 17
3 41 40 18
3 45 44 19
3 43 45 20
3 44 43 21
3 48 47 10
3 46 48 22
3 47 46 23
3 51 50 11
3 49 51 24
3 50 49 25
3 54 53 12
3 52 54 26
3 53 52 27
3 57 56 13
3 55 57 28
3 56 55 29
3 60 59 26
3 58 60 14
3 59 58 30
3 63 62 15
3 61 63 25
3 62 61 31
3 66 65 16
3 64 66 29
3 65 64 32
3 69 68 22
3 67 69 17
3 68 67 33
3 72 71 18
3 70 72 27
3 71 70 30
3 75 74 19
3 73 75 23
3 74 73 33
3 78 77 28
3 76 78 20
3 77 76 32
3 81 80 24
3 79 81 21
3 80 79 31
3 83 82 4
3 34 83 12
3 82 34 11
3 85 84 5
3 35 85 10
3 84 35 12
3 87 86 6
3 36 87 11
3 86 36 10
3 89 88 4
3 37 89 15
3 88 37 14
3 91 90 7
3 38 91 13
3 90 38 15
3 93 92 8
3 39 93 14
3 92 39 13
3 95 94 5
3 40 95 18
3 94 40 17
3 97 96 8
3 41 97 16
3 96 41 18
3 99 98 9
3 42 99 17
3 98 42 16
3 101 100 7
3 43 101 21
3 100 43 20
3 103 102 6
3 44 103 19
3 102 44 21
3 105 104 9
3 45 105 20
3 104 45 19
3 107 106 3
3 46 107 23
3 106 46 22
3 108 47 23
3 86 108 6
3 47 86 10
3 109 85 5
3 48 109 22
3 85 48 10
3 111 110 1
3 49 111 25
3 110 49 24
3 112 50 25
3 82 112 4
3 50 82 11
3 113 87 6
3 51 113 24
3 87 51 11
3 115 114 2
3 52 115 27
3 114 52 26
3 116 53 27
3 84 116 5
3 53 84 12
3 117 83 4
3 54 117 26
3 83 54 12
3 119 118 0
3 55 119 29
3 118 55 28
3 120 56 29
3 92 120 8
3 56 92 13
3 121 91 7
3 57 121 28
3 91 57 13
3 122 93 8
3 58 122 30
3 93 58 14
3 123 59 30
3 114 123 2
3 59 114 26
3 117 60 26
3 88 117 4
3 60 88 14
3 124 111 1
3 61 124 31
3 111 61 25
3 125 62 31
3 90 125 7
3 62 90 15
3 112 89 4
3 63 112 25
3 89 63 15
3 126 119 0
3 64 126 32
3 119 64 29
3 127 65 32
3 98 127 9
3 65 98 16
3 120 97 8
3 66 120 29
3 97 66 16
3 128 99 9
3 67 128 33
3 99 67 17
3 129 68 33
3 106 129 3
3 68 106 22
3 109 69 22
3 94 109 5
3 69 94 17
3 123 115 2
3 70 123 30
3 115 70 27
3 122 71 30
3 96 122 8
3 71 96 18
3 116 95 5
3 72 116 27
3 95 72 18
3 129 107 3
3 73 129 33
3 107 73 23
3 128 74 33
3 104 128 9
3 74 104 19
3 108 103 6
3 75 108 23
3 103 75 19
3 127 105 9
3 76 127 32
3 105 76 20
3 126 77 32
3 118 126 0
3 77 118 28
3 121 78 28
3 100 121 7
3 78 100 20
3 125 101 7
3 79 125 31
3 101 79 21
3 124 80 31
3 110 124 1
3 80 110 24
3 113 81 24
3 102 113 6
3 81 102 21
