ply
format ascii 1.0
element vertex 434
property float x
property float y
property float z
element face 432
property list uchar int vertex_indices
end_header
-0.251131 -0.164095 -0.265946
0.228309 0.232013 -0.224606
0.231782 -0.228721 0.22566
-0.251131 0.164095 0.265946
0.494499 -0.000839838 -0.00671874
-0.00228622 0.0465021 0.501585
-0.0373457 0.509099 0.0410494
-0.00228622 -0.0465021 -0.501585
-0.0373457 -0.509099 -0.0410494
-0.513727 -7.93349e-10 -4.65661e-10
0.293534 0.259577 0.25379
0.293534 -0.259577 -0.25379
-0.259577 -0.25379 0.293534
-0.259577 0.25379 -0.293534
0.152798 0.425345 0.151728
0.158436 0.172382 0.417124
0.0144033 0.311148 0.327079
-0.137397 0.150545 0.387109
-0.175118 0.353228 0.175118
0.152798 -0.425345 -0.151728
0.158436 -0.172382 -0.417124
0.0144033 -0.311148 -0.327079
-0.137397 -0.150545 -0.387109
-0.175118 -0.353228 -0.175118
-0.417753 -0.165895 0.15715
-0.171753 -0.417721 0.157007
-0.310243 -0.325881 0.0144033
-0.39065 -0.136267 -0.144626
-0.417753 0.165895 -0.15715
-0.171753 0.417721 -0.157007
-0.310243 0.325881 -0.0144033
-0.39065 0.136267 0.144626
0.420096 0.097051 -0.119273
0.443101 0.131944 0.129372
0.309108 0.285405 0.035336
0.107751 0.43075 -0.0855284
0.097051 -0.11631 0.420837
0.289149 0.0375994 0.305363
0.43059 -0.0898493 0.108368
0.436954 -0.14535 -0.127243
0.309108 -0.285405 -0.035336
0.107751 -0.43075 0.0855284
0.097051 0.11631 -0.420837
0.299649 -0.0291113 -0.295477
-0.14535 -0.12428 0.437695
-0.296775 -0.0284565 0.300376
-0.0291113 -0.295477 0.299649
-0.14535 0.12428 -0.437695
-0.296775 0.0284565 -0.300376
-0.0291113 0.295477 -0.299649
0.113909 0.338308 0.304609
-0.079218 0.301065 0.303004
0.113909 -0.338308 -0.304609
-0.079218 -0.301065 -0.303004
-0.338308 -0.302551 0.115967
-0.303864 -0.298102 -0.079218
-0.338308 0.302551 -0.115967
-0.303864 0.298102 0.079218
0.409808 0.183882 0.00500681
0.205405 0.391989 0.0250479
0.185322 0.0102331 0.409108
0.395734 0.0227845 0.20166
0.409808 -0.183882 -0.00500681
0.205405 -0.391989 -0.0250479
0.185322 -0.0102331 -0.409108
0.414321 -0.0383538 -0.186091
-0.187191 -0.00336418 0.410154
-0.410325 -0.0387653 0.191687
-0.00932776 -0.409968 0.183265
-0.0383538 -0.183128 0.415062
-0.187191 0.00336418 -0.410154
-0.410325 0.0387653 -0.191687
-0.00932776 0.409968 -0.183265
-0.0383538 0.183128 -0.415062
0.0596707 0.334305 0.314301
0.138786 0.260391 0.370988
0.0787038 0.239815 0.39033
0.0838478 0.119856 0.462963
0.00874487 0.194959 0.416667
-0.118055 0.345365 0.233796
-0.106224 0.221039 0.358179
-0.153228 0.258552 0.287487
-0.193094 0.164159 0.327353
-0.220357 0.260867 0.220357
0.0596707 -0.334305 -0.314301
0.138786 -0.260391 -0.370988
0.0787038 -0.239815 -0.39033
0.0838478 -0.119856 -0.462963
0.00874487 -0.194959 -0.416667
-0.118055 -0.345365 -0.233796
-0.106224 -0.221039 -0.358179
-0.153228 -0.258552 -0.287487
-0.193094 -0.164159 -0.327353
-0.220357 -0.260867 -0.220357
-0.334305 -0.311728 0.0622428
-0.260391 -0.370988 0.138786
-0.238683 -0.391404 0.0761317
-0.114197 -0.468336 0.0709877
-0.189301 -0.42204 -0.00411521
-0.359253 -0.217335 -0.106224
-0.233796 -0.345365 -0.118055
-0.287487 -0.258552 -0.153228
-0.317579 -0.163644 -0.201839
-0.334305 0.311728 -0.0622428
-0.260391 0.370988 -0.138786
-0.238683 0.391404 -0.0761317
-0.114197 0.468336 -0.0709877
-0.189301 0.42204 0.00411521
-0.359253 0.217335 0.106224
-0.233796 0.345365 0.118055
-0.287487 0.258552 0.153228
-0.317579 0.163644 0.201839
0.35871 0.239369 0.0152606
0.434413 0.165381 0.0707305
0.377726 0.222582 0.0950103
0.377314 0.196245 0.188014
0.306327 0.283693 0.137603
0.160151 0.41478 -0.0397807
0.183282 0.416512 0.0955244
0.125772 0.446188 0.0316355
0.0722737 0.47065 0.103652
0.0434672 0.478881 -0.034208
0.241169 0.0180898 0.35691
0.174383 0.08858 0.426338
0.234465 0.109156 0.365844
0.226852 0.213477 0.346708
0.299897 0.140432 0.290123
0.416581 -0.0426099 0.158351
0.428395 0.0813785 0.171399
0.453189 0.0149176 0.119342
0.476852 0.0653293 0.0689301
0.470679 -0.0498972 0.0545269
0.35871 -0.239369 -0.0152606
0.434413 -0.165381 -0.0707305
0.377726 -0.222582 -0.0950103
0.377314 -0.196245 -0.188014
0.306327 -0.283693 -0.137603
0.160151 -0.41478 0.0397807
0.183282 -0.416512 -0.0955244
0.125772 -0.446188 -0.0316355
0.0722737 -0.47065 -0.103652
0.0434672 -0.478881 0.034208
0.241169 -0.0180898 -0.35691
0.174383 -0.08858 -0.426338
0.234465 -0.109156 -0.365844
0.226852 -0.213477 -0.346708
0.299897 -0.140432 -0.290123
0.362808 -0.0363682 -0.239558
0.426697 0.0321504 -0.152521
0.364369 0.0495543 -0.206962
0.341392 0.156207 -0.165466
0.276577 0.0913923 -0.267318
-0.241191 -0.0192258 0.360532
-0.165381 -0.0670268 0.435339
-0.222582 -0.0950103 0.377726
-0.196245 -0.188014 0.377314
-0.283693 -0.137603 0.306327
-0.357613 -0.0340535 0.244753
-0.417124 0.0437241 0.164095
-0.354617 0.0571629 0.220357
-0.283372 0.0738812 0.278742
-0.0180898 -0.35691 0.241169
-0.0874483 -0.427412 0.171811
-0.109156 -0.365844 0.234465
-0.213477 -0.346708 0.226852
-0.140432 -0.290123 0.299897
-0.0363682 -0.239558 0.362808
0.0321504 -0.148817 0.427623
0.0495543 -0.206962 0.364369
0.156207 -0.165466 0.341392
0.0913923 -0.267318 0.276577
-0.241191 0.0192258 -0.360532
-0.165381 0.0670268 -0.435339
-0.222582 0.0950103 -0.377726
-0.196245 0.188014 -0.377314
-0.283693 0.137603 -0.306327
-0.357613 0.0340535 -0.244753
-0.417124 -0.0437241 -0.164095
-0.354617 -0.0571629 -0.220357
-0.283372 -0.0738812 -0.278742
-0.0180898 0.35691 -0.241169
-0.0874483 0.427412 -0.171811
-0.109156 0.365844 -0.234465
-0.213477 0.346708 -0.226852
-0.140432 0.290123 -0.299897
-0.0363682 0.239558 -0.362808
0.0321504 0.148817 -0.427623
0.0495543 0.206962 -0.364369
0.156207 0.165466 -0.341392
0.0913923 0.267318 -0.276577
0.1357 0.38842 0.235699
0.0473251 0.426154 0.193415
-0.00823046 0.413295 0.202675
0.198559 0.300925 0.300925
0.218107 0.356481 0.212962
-0.0360082 0.313318 0.311111
-0.0619856 0.411494 0.182356
-0.11394 0.435671 0.11394
-0.0802467 0.0987653 0.451132
-0.0468106 0.1857 0.408436
0.1357 -0.38842 -0.235699
0.0473251 -0.426154 -0.193415
-0.00823046 -0.413295 -0.202675
0.198559 -0.300925 -0.300925
0.218107 -0.356481 -0.212962
-0.0360082 -0.313318 -0.311111
-0.0619856 -0.411494 -0.182356
-0.11394 -0.435671 -0.11394
-0.0802467 -0.0987653 -0.451132
-0.0468106 -0.1857 -0.408436
-0.46885 -0.101852 0.0925927
-0.38842 -0.233127 0.138272
-0.426154 -0.180555 0.0601852
-0.413295 -0.189815 0.00462962
-0.300925 -0.300925 0.198559
-0.356481 -0.212962 0.218107
-0.312186 -0.309614 -0.0360082
-0.413809 -0.167181 -0.0468106
-0.456504 -0.0802467 -0.0802467
-0.182356 -0.411494 -0.0619856
-0.46885 0.101852 -0.0925927
-0.38842 0.233127 -0.138272
-0.426154 0.180555 -0.0601852
-0.413295 0.189815 -0.00462962
-0.300925 0.300925 -0.198559
-0.356481 0.212962 -0.218107
-0.312186 0.309614 0.0360082
-0.413809 0.167181 0.0468106
-0.456504 0.0802467 0.0802467
-0.182356 0.411494 0.0619856
0.420953 0.146777 -0.054184
0.334191 0.21382 -0.0934499
0.274777 0.274777 -0.0803326
0.463477 0.102881 0.01286
0.467335 0.0594137 -0.0594137
0.252898 0.34261 0.0259087
0.21382 0.334191 -0.0934499
0.156722 0.351166 -0.156722
0.246399 0.347736 0.138374
0.146777 -0.0504803 0.421879
0.21382 -0.0934499 0.334191
0.274777 -0.0803326 0.274777
0.104681 0.0342078 0.466307
0.0594137 -0.0408952 0.471965
0.34549 0.0259087 0.250017
0.334191 -0.0934499 0.21382
0.351166 -0.156722 0.156722
0.36394 0.135545 0.230195
0.420953 -0.146777 0.054184
0.334191 -0.21382 0.0934499
0.274777 -0.274777 0.0803326
0.475051 -0.0763889 -0.0763889
0.463477 -0.102881 -0.01286
0.252898 -0.34261 -0.0259087
0.21382 -0.334191 0.0934499
0.156722 -0.351166 0.156722
0.246399 -0.347736 -0.138374
0.146777 0.0504803 -0.421879
0.21382 0.0934499 -0.334191
0.104681 -0.0342078 -0.466307
0.0594137 0.0408952 -0.471965
0.43431 -0.0903806 -0.162397
0.36394 -0.135545 -0.230195
0.463477 -0.01286 -0.102881
-0.160172 0.0654963 0.412127
-0.225244 0.0759389 0.340985
-0.0763889 -0.0578704 0.479681
-0.105195 0.00797325 0.465792
-0.424428 -0.104526 0.17428
-0.347736 -0.138374 0.246399
-0.469364 -0.0133745 0.106996
0.0516119 -0.422954 0.144205
0.0934499 -0.334191 0.21382
-0.0285493 -0.471679 0.0918211
-0.0903806 -0.158693 0.435236
-0.135545 -0.230195 0.36394
-0.01286 -0.0843622 0.468107
-0.160172 -0.0654963 -0.412127
-0.225244 -0.0759389 -0.340985
-0.0763889 0.0578704 -0.479681
-0.105195 -0.00797325 -0.465792
-0.424428 0.104526 -0.17428
-0.347736 0.138374 -0.246399
-0.469364 0.0133745 -0.106996
0.0516119 0.422954 -0.144205
0.0934499 0.334191 -0.21382
-0.0285493 0.471679 -0.0918211
-0.0903806 0.158693 -0.435236
-0.135545 0.230195 -0.36394
-0.01286 0.0843622 -0.468107
0.0925926 0.277778 0.366255
0.0555556 0.181481 0.42963
-0.128601 0.276749 0.295267
-0.184928 0.235854 0.27752
0.0925926 -0.277778 -0.366255
0.0555556 -0.181481 -0.42963
-0.128601 -0.276749 -0.295267
-0.184928 -0.235854 -0.27752
-0.277778 -0.366255 0.0925926
-0.176955 -0.433928 0.0452675
-0.295267 -0.276749 -0.128601
-0.27752 -0.235854 -0.184928
-0.277778 0.366255 -0.0925926
-0.176955 0.433928 -0.0452675
-0.295267 0.276749 0.128601
-0.27752 0.235854 0.184928
0.394033 0.212963 0.0648148
0.354526 0.236008 0.145473
0.15535 0.433128 0.0298351
0.0792183 0.471994 0.0318927
0.220165 0.0761315 0.386831
0.254732 0.15679 0.335802
0.440329 0.0185184 0.148148
0.471193 0.010288 0.0823047
0.394033 -0.212963 -0.0648148
0.354526 -0.236008 -0.145473
0.15535 -0.433128 -0.0298351
0.0792183 -0.471994 -0.0318927
0.220165 -0.0761315 -0.386831
0.254732 -0.15679 -0.335802
0.38786 0.0174898 -0.202675
0.325789 0.103567 -0.214678
-0.212963 -0.0648148 0.394033
-0.236008 -0.145473 0.354526
-0.378601 0.0267488 0.211934
-0.323817 0.0969649 0.231224
-0.0761315 -0.386831 0.220165
-0.15679 -0.335802 0.254732
0.0174898 -0.202675 0.38786
0.103567 -0.214678 0.325789
-0.212963 0.0648148 -0.394033
-0.236008 0.145473 -0.354526
-0.378601 -0.0267488 -0.211934
-0.323817 -0.0969649 -0.231224
-0.0761315 0.386831 -0.220165
-0.15679 0.335802 -0.254732
0.0174898 0.202675 -0.38786
0.103567 0.214678 -0.325789
0.0802469 0.435985 0.179012
0.0288065 0.398948 0.230453
0.190946 0.257613 0.34609
0.190946 0.34609 0.257613
-0.037037 0.390718 0.222222
-0.0936213 0.410265 0.167695
-0.0740739 0.162963 0.415226
-0.026749 0.226749 0.38642
0.0802469 -0.435985 -0.179012
0.0288065 -0.398948 -0.230453
0.190946 -0.257613 -0.34609
0.190946 -0.34609 -0.257613
-0.037037 -0.390718 -0.222222
-0.0936213 -0.410265 -0.167695
-0.0740739 -0.162963 -0.415226
-0.026749 -0.226749 -0.38642
-0.435985 -0.168724 0.090535
-0.398948 -0.220165 0.0390946
-0.257613 -0.34609 0.190946
-0.34609 -0.257613 0.190946
-0.390718 -0.211934 -0.026749
-0.419524 -0.148148 -0.0740739
-0.167695 -0.410265 -0.0936213
-0.222222 -0.390718 -0.037037
-0.435985 0.168724 -0.090535
-0.398948 0.220165 -0.0390946
-0.257613 0.34609 -0.190946
-0.34609 0.257613 -0.190946
-0.390718 0.211934 0.026749
-0.419524 0.148148 0.0740739
-0.167695 0.410265 0.0936213
-0.222222 0.390718 0.037037
0.364883 0.179698 -0.105624
0.318587 0.244513 -0.0593278
0.463992 0.11214 0.0545268
0.457819 0.101852 -0.0277779
0.244513 0.318587 -0.0593278
0.179698 0.364883 -0.105624
0.219753 0.374897 0.154732
0.267078 0.329629 0.107407
0.179698 -0.105624 0.364883
0.244513 -0.0593278 0.318587
0.119342 0.0806583 0.460494
0.101852 -0.0129631 0.461523
0.318587 -0.0593278 0.244513
0.364883 -0.105624 0.179698
0.393621 0.143415 0.201029
0.341152 0.107407 0.255555
0.364883 -0.179698 0.105624
0.318587 -0.244513 0.0593278
0.463992 -0.11214 -0.0545268
0.457819 -0.101852 0.0277779
0.244513 -0.318587 0.0593278
0.179698 -0.364883 0.105624
0.219753 -0.374897 -0.154732
0.267078 -0.329629 -0.107407
0.179698 0.105624 -0.364883
0.244513 0.0593278 -0.318587
0.119342 -0.0806583 -0.460494
0.101852 0.0129631 -0.461523
0.393621 -0.143415 -0.201029
0.341152 -0.107407 -0.255555
0.457819 0.0277779 -0.101852
0.463992 -0.0545268 -0.11214
-0.196245 0.0990226 0.362911
-0.2518 0.0434672 0.325874
-0.11214 -0.0397119 0.467695
-0.111111 0.0518517 0.452263
-0.374897 -0.154732 0.219753
-0.329629 -0.107407 0.267078
-0.456561 0.0370369 0.111111
-0.464792 -0.0658434 0.119342
0.105624 -0.364883 0.179698
0.0593278 -0.318587 0.244513
-0.0761315 -0.464792 0.109054
0.0174898 -0.465821 0.0915639
-0.143415 -0.201029 0.393621
-0.107407 -0.255555 0.341152
0.0277779 -0.0870372 0.461523
-0.0545268 -0.0973252 0.467695
-0.196245 -0.0990226 -0.362911
-0.2518 -0.0434672 -0.325874
-0.11214 0.0397119 -0.467695
-0.111111 -0.0518517 -0.452263
-0.374897 0.154732 -0.219753
-0.329629 0.107407 -0.267078
-0.456561 -0.0370369 -0.111111
-0.464792 0.0658434 -0.119342
0.105624 0.364883 -0.179698
0.0593278 0.318587 -0.244513
-0.0761315 0.464792 -0.109054
0.0174898 0.465821 -0.0915639
-0.143415 0.201029 -0.393621
-0.107407 0.255555 -0.341152
0.0277779 0.0870372 -0.461523
-0.0545268 0.0973252 -0.467695
4 76 290 75 15
4 78 291 77 5
4 81 292 80 17
4 83 293 82 3
4 86 294 85 20
4 88 295 87 7
4 91 296 90 22
4 93 297 92 0
4 96 298 95 25
4 98 299 97 8
4 101 300 100 23
4 102 301 93 0
4 105 302 104 29
4 107 303 106 6
4 110 304 109 18
4 111 305 83 3
4 114 306 113 33
4 116 307 115 10
4 119 308 118 14
4 121 309 120 6
4 124 310 123 15
4 126 311 125 10
4 129 312 128 33
4 131 313 130 4
4 134 314 133 39
4 136 315 135 11
4 139 316 138 19
4 141 317 140 8
4 144 318 143 20
4 146 319 145 11
4 149 320 148 32
4 151 321 150 1
4 154 322 153 44
4 156 323 155 12
4 159 324 158 31
4 160 325 111 3
4 163 326 162 25
4 165 327 164 12
4 168 328 167 36
4 170 329 169 2
4 173 330 172 47
4 175 331 174 13
4 178 332 177 27
4 179 333 102 0
4 182 334 181 29
4 184 335 183 13
4 187 336 186 42
4 189 337 188 1
4 191 338 190 50
4 192 339 74 16
4 193 340 75 50
4 194 341 190 14
4 196 342 195 51
4 197 343 79 18
4 199 344 80 51
4 199 345 78 5
4 201 346 200 52
4 202 347 84 21
4 203 348 85 52
4 204 349 200 19
4 206 350 205 53
4 207 351 89 23
4 209 352 90 53
4 209 353 88 7
4 212 354 211 54
4 213 355 94 26
4 214 356 95 54
4 215 357 211 24
4 217 358 216 55
4 218 359 99 27
4 219 360 100 55
4 219 361 98 8
4 222 362 221 56
4 223 363 103 30
4 224 364 104 56
4 225 365 221 28
4 227 366 226 57
4 228 367 108 31
4 229 368 109 57
4 229 369 107 6
4 231 370 230 58
4 232 371 112 34
4 233 372 113 58
4 234 373 230 32
4 236 374 235 59
4 237 375 117 35
4 238 376 118 59
4 238 377 116 10
4 240 378 239 60
4 241 379 122 37
4 242 380 123 60
4 243 381 239 36
4 245 382 244 61
4 246 383 127 38
4 247 384 128 61
4 247 385 126 10
4 249 386 248 62
4 250 387 132 40
4 252 388 133 62
4 252 389 131 4
4 254 390 253 63
4 255 391 137 41
4 256 392 138 63
4 256 393 136 11
4 258 394 257 64
4 258 395 151 1
4 259 396 143 64
4 260 397 257 42
4 262 398 261 65
4 262 399 146 11
4 263 400 148 65
4 263 401 251 4
4 265 402 264 66
4 265 403 160 3
4 267 404 153 66
4 267 405 198 5
4 269 406 268 67
4 269 407 156 12
4 270 408 158 67
4 270 409 210 9
4 272 410 271 68
4 272 411 170 2
4 273 412 162 68
4 273 413 141 8
4 275 414 274 69
4 275 415 165 12
4 276 416 167 69
4 276 417 266 5
4 278 418 277 70
4 278 419 179 0
4 280 420 172 70
4 280 421 208 7
4 282 422 281 71
4 282 423 175 13
4 283 424 177 71
4 283 425 220 9
4 285 426 284 72
4 285 427 189 1
4 286 428 181 72
4 286 429 121 6
4 288 430 287 73
4 288 431 184 13
4 289 432 186 73
4 289 433 279 7
4 16 74 290 76
4 50 75 290 74
4 16 76 291 78
4 15 77 291 76
4 18 79 292 81
4 51 80 292 79
4 18 81 293 83
4 17 82 293 81
4 21 84 294 86
4 52 85 294 84
4 21 86 295 88
4 20 87 295 86
4 23 89 296 91
4 53 90 296 89
4 23 91 297 93
4 22 92 297 91
4 26 94 298 96
4 54 95 298 94
4 26 96 299 98
4 25 97 299 96
4 27 99 300 101
4 55 100 300 99
4 27 101 301 102
4 23 93 301 101
4 30 103 302 105
4 56 104 302 103
4 30 105 303 107
4 29 106 303 105
4 31 108 304 110
4 57 109 304 108
4 31 110 305 111
4 18 83 305 110
4 34 112 306 114
4 58 113 306 112
4 34 114 307 116
4 33 115 307 114
4 35 117 308 119
4 59 118 308 117
4 35 119 309 121
4 14 120 309 119
4 37 122 310 124
4 60 123 310 122
4 37 124 311 126
4 15 125 311 124
4 38 127 312 129
4 61 128 312 127
4 38 129 313 131
4 33 130 313 129
4 40 132 314 134
4 62 133 314 132
4 40 134 315 136
4 39 135 315 134
4 41 137 316 139
4 63 138 316 137
4 41 139 317 141
4 19 140 317 139
4 43 142 318 144
4 64 143 318 142
4 43 144 319 146
4 20 145 319 144
4 43 147 320 149
4 65 148 320 147
4 43 149 321 151
4 32 150 321 149
4 45 152 322 154
4 66 153 322 152
4 45 154 323 156
4 44 155 323 154
4 45 157 324 159
4 67 158 324 157
4 45 159 325 160
4 31 111 325 159
4 46 161 326 163
4 68 162 326 161
4 46 163 327 165
4 25 164 327 163
4 46 166 328 168
4 69 167 328 166
4 46 168 329 170
4 36 169 329 168
4 48 171 330 173
4 70 172 330 171
4 48 173 331 175
4 47 174 331 173
4 48 176 332 178
4 71 177 332 176
4 48 178 333 179
4 27 102 333 178
4 49 180 334 182
4 72 181 334 180
4 49 182 335 184
4 29 183 335 182
4 49 185 336 187
4 73 186 336 185
4 49 187 337 189
4 42 188 337 187
4 6 120 338 191
4 14 190 338 120
4 6 191 339 192
4 50 74 339 191
4 10 125 340 193
4 15 75 340 125
4 10 193 341 194
4 50 190 341 193
4 6 192 342 196
4 16 195 342 192
4 6 196 343 197
4 51 79 343 196
4 5 198 344 199
4 17 80 344 198
4 51 195 345 199
4 16 78 345 195
4 8 140 346 201
4 19 200 346 140
4 8 201 347 202
4 52 84 347 201
4 11 145 348 203
4 20 85 348 145
4 11 203 349 204
4 52 200 349 203
4 8 202 350 206
4 21 205 350 202
4 8 206 351 207
4 53 89 351 206
4 7 208 352 209
4 22 90 352 208
4 53 205 353 209
4 21 88 353 205
4 9 210 354 212
4 24 211 354 210
4 9 212 355 213
4 54 94 355 212
4 12 164 356 214
4 25 95 356 164
4 12 214 357 215
4 54 211 357 214
4 9 213 358 217
4 26 216 358 213
4 9 217 359 218
4 55 99 359 217
4 8 207 360 219
4 23 100 360 207
4 55 216 361 219
4 26 98 361 216
4 9 220 362 222
4 28 221 362 220
4 9 222 363 223
4 56 103 363 222
4 13 183 364 224
4 29 104 364 183
4 13 224 365 225
4 56 221 365 224
4 9 223 366 227
4 30 226 366 223
4 9 227 367 228
4 57 108 367 227
4 6 197 368 229
4 18 109 368 197
4 57 226 369 229
4 30 107 369 226
4 1 150 370 231
4 32 230 370 150
4 1 231 371 232
4 58 112 371 231
4 4 130 372 233
4 33 113 372 130
4 4 233 373 234
4 58 230 373 233
4 1 232 374 236
4 34 235 374 232
4 1 236 375 237
4 59 117 375 236
4 10 194 376 238
4 14 118 376 194
4 59 235 377 238
4 34 116 377 235
4 2 169 378 240
4 36 239 378 169
4 2 240 379 241
4 60 122 379 240
4 5 77 380 242
4 15 123 380 77
4 5 242 381 243
4 60 239 381 242
4 2 241 382 245
4 37 244 382 241
4 2 245 383 246
4 61 127 383 245
4 10 115 384 247
4 33 128 384 115
4 61 244 385 247
4 37 126 385 244
4 2 246 386 249
4 38 248 386 246
4 2 249 387 250
4 62 132 387 249
4 4 251 388 252
4 39 133 388 251
4 62 248 389 252
4 38 131 389 248
4 2 250 390 254
4 40 253 390 250
4 2 254 391 255
4 63 137 391 254
4 11 204 392 256
4 19 138 392 204
4 63 253 393 256
4 40 136 393 253
4 1 188 394 258
4 42 257 394 188
4 64 142 395 258
4 43 151 395 142
4 7 87 396 259
4 20 143 396 87
4 7 259 397 260
4 64 257 397 259
4 11 135 398 262
4 39 261 398 135
4 65 147 399 262
4 43 146 399 147
4 4 234 400 263
4 32 148 400 234
4 65 261 401 263
4 39 251 401 261
4 3 82 402 265
4 17 264 402 82
4 66 152 403 265
4 45 160 403 152
4 5 266 404 267
4 44 153 404 266
4 66 264 405 267
4 17 198 405 264
4 12 215 406 269
4 24 268 406 215
4 67 157 407 269
4 45 156 407 157
4 9 228 408 270
4 31 158 408 228
4 67 268 409 270
4 24 210 409 268
4 2 255 410 272
4 41 271 410 255
4 68 161 411 272
4 46 170 411 161
4 8 97 412 273
4 25 162 412 97
4 68 271 413 273
4 41 141 413 271
4 12 155 414 275
4 44 274 414 155
4 69 166 415 275
4 46 165 415 166
4 5 243 416 276
4 36 167 416 243
4 69 274 417 276
4 44 266 417 274
4 0 92 418 278
4 22 277 418 92
4 70 171 419 278
4 48 179 419 171
4 7 279 420 280
4 47 172 420 279
4 70 277 421 280
4 22 208 421 277
4 13 225 422 282
4 28 281 422 225
4 71 176 423 282
4 48 175 423 176
4 9 218 424 283
4 27 177 424 218
4 71 281 425 283
4 28 220 425 281
4 1 237 426 285
4 35 284 426 237
4 72 180 427 285
4 49 189 427 180
4 6 106 428 286
4 29 181 428 106
4 72 284 429 286
4 35 121 429 284
4 13 174 430 288
4 47 287 430 174
4 73 185 431 288
4 49 184 431 185
4 7 260 432 289
4 42 186 432 260
4 73 287 433 289
4 47 279 433 287
