ply
format ascii 1.0
element vertex 56
property float x
property float y
property float z
element face 108
property list uchar int vertex_indices
end_header
-0.16781 -0.16781 -0.16781
0.16781 0.16781 -0.16781
0.16781 -0.16781 0.16781
-0.16781 0.16781 0.16781
0.179698 0.179698 0.179698
0.179698 -0.179698 -0.179698
-0.179698 -0.179698 0.179698
-0.179698 0.179698 -0.179698
-0.0845907 0.266575 0.0845907
0.266575 -0.0845907 0.0845907
-0.266575 -0.0845907 -0.0845907
-0.266575 0.0845907 0.0845907
0.266575 0.0845907 -0.0845907
0.0845907 -0.0845907 0.266575
0.0845907 0.0845907 -0.266575
-0.0845907 -0.266575 -0.0845907
-0.0845907 0.0845907 0.266575
0.0845907 -0.266575 0.0845907
-0.0845907 -0.0845907 -0.266575
0.0845907 0.266575 -0.0845907
-0.0727023 0.278464 -0.0727023
0.278464 0.0727023 0.0727023
-0.278464 0.0727023 -0.0727023
-0.278464 -0.0727023 0.0727023
0.278464 -0.0727023 -0.0727023
-0.0727023 -0.0727023 0.278464
-0.0727023 0.0727023 -0.278464
-0.0727023 -0.278464 0.0727023
0.0727023 0.0727023 0.278464
0.0727023 -0.278464 -0.0727023
0.0727023 -0.0727023 -0.278464
0.0727023 0.278464 0.0727023
0.0150892 0.20439 0.20439
-0.190672 0.190672 0.116598
0.20439 -0.20439 -0.0150892
0.190672 -0.116598 0.190672
-0.20439 -0.20439 0.0150892
-0.190672 -0.116598 -0.190672
-0.20439 0.20439 -0.0150892
-0.190672 0.116598 0.190672
0.20439 0.20439 0.0150892
0.190672 0.116598 -0.190672
0.20439 0.0150892 0.20439
0.116598 -0.190672 0.190672
0.20439 -0.0150892 -0.20439
0.116598 0.190672 -0.190672
0.0150892 -0.20439 -0.20439
-0.190672 -0.190672 -0.116598
-0.20439 -0.0150892 0.20439
-0.116598 0.190672 0.190672
-0.0150892 -0.20439 0.20439
0.190672 -0.190672 0.116598
-0.20439 0.0150892 -0.20439
-0.116598 -0.190672 -0.190672
-0.0150892 0.20439 -0.20439
0.190672 0.190672 -0.116598
3 20 19 31
3 21 12 24
3 22 11 23
3 23 10 22
3 24 9 21
3 25 16 28
3 26 18 30
3 27 17 29
3 28 13 25
3 29 15 27
3 30 14 26
3 31 8 20
3 32 16 49
3 33 11 38
3 34 17 51
3 35 13 42
3 36 15 47
3 37 18 52
3 38 8 33
3 39 16 48
3 40 19 55
3 41 14 44
3 42 9 35
3 43 17 50
3 44 12 41
3 45 19 54
3 46 18 53
3 47 10 36
3 48 11 39
3 49 8 32
3 50 13 43
3 51 9 34
3 52 10 37
3 53 15 46
3 54 14 45
3 55 12 40
3 20 8 38
3 20 7 54
3 21 9 42
3 21 4 40
3 22 10 52
3 22 7 38
3 23 11 48
3 23 6 36
3 24 12 44
3 24 5 34
3 25 13 50
3 25 6 48
3 26 14 54
3 26 7 52
3 27 15 36
3 27 6 50
3 28 16 32
3 28 4 42
3 29 17 34
3 29 5 46
3 30 18 46
3 30 5 44
3 31 19 40
3 31 4 32
3 32 8 31
3 32 4 28
3 33 8 49
3 33 3 39
3 34 9 24
3 34 5 29
3 35 9 51
3 35 2 43
3 36 10 23
3 36 6 27
3 37 10 47
3 37 0 53
3 38 11 22
3 38 7 20
3 39 11 33
3 39 3 49
3 40 12 21
3 40 4 31
3 41 12 55
3 41 1 45
3 42 13 28
3 42 4 21
3 43 13 35
3 43 2 51
3 44 14 30
3 44 5 24
3 45 14 41
3 45 1 55
3 46 15 29
3 46 5 30
3 47 15 53
3 47 0 37
3 48 16 25
3 48 6 23
3 49 16 39
3 49 3 33
3 50 17 27
3 50 6 25
3 51 17 43
3 51 2 35
3 52 18 26
3 52 7 22
3 53 18 37
3 53 0 47
3 54 19 20
3 54 7 26
3 55 19 45
3 55 1 41
